<svg viewBox="0 0 24 24" width="24px" height="24px" x="0" y="0" preserveAspectRatio="xMinYMin meet" class="social-icon"><g style="fill: currentColor" class="solid-icon">
        <rect x="-0.003" style="fill:none;" width="24" height="24"></rect>
        <path style="" d="M21,7.7c0,0.2,0,0.4,0,0.6C21,14.4,16.5,21,8.3,21c-2.5,0-5.4-0.5-7.3-1.6c2.7,0,5.1-0.7,7-2c-2-0.2-3.7-1.3-4.3-3c0.7,0.1,1.9-0.1,2.3-0.3c-2-0.6-3.1-2.1-3.4-4.1c0.4,0.2,1.2,0.2,1.7,0.1c-1-0.8-1.4-2.2-1.4-3.8c0-0.8,0.2-1.7,0.6-2.3c1.9,2.8,5.2,4.9,8.7,5.1c-0.1-0.5-0.3-1.2-0.3-1.8C12,4.8,13.7,3,16.3,3c1.9,0,2.8,0.7,3.6,1.7c0.9-0.3,1.7-0.8,2.5-1.3c-0.2,1.1-0.8,2.1-1.8,2.7c0.9-0,1.8-0.3,2.6-0.7C22.7,6.2,22,7,21,7.7z"></path>
      </g></svg>