<svg viewBox="0 0 24 24" width="24px" height="24px" x="0" y="0" preserveAspectRatio="xMinYMin meet" class="social-icon"><g style="fill: currentColor" class="solid-icon">
        <rect x="-0.003" style="fill:none;" width="24" height="24"></rect>
        <path style="" d="M22.7,7.2c-0.3-1.6-1.3-2.7-3-2.9C17.8,4.2,15,4,12,4S6.2,4.2,4.3,4.4C2.6,4.5,1.6,5.6,1.3,7.2C1.1,8.5,1,10,1,12c0,1.9,0.1,3.5,0.3,4.8c0.3,1.6,1.3,2.7,3,2.9C6.2,19.8,9,20,12,20s5.8-0.2,7.7-0.4c1.7-0.2,2.7-1.3,3-2.9C22.9,15.5,23,14,23,12C23,10.1,22.9,8.5,22.7,7.2zM9.9,15.4v-6.8L16.2,12L9.9,15.4z"></path>
      </g></svg>